<svg version="1.1" xmlns="http://www.w3.org/2000/svg" xmlns:xlink="http://www.w3.org/1999/xlink" width="106.22931" height="39.05951" viewBox="0,0,106.22931,39.05951"><g transform="translate(-266.96319,-160.84218)"><g data-paper-data="{&quot;isPaintingLayer&quot;:true}" fill-rule="nonzero" stroke-linecap="butt" stroke-linejoin="miter" stroke-miterlimit="10" stroke-dasharray="" stroke-dashoffset="0" style="mix-blend-mode: normal"><text transform="translate(307.39,187.01877) scale(0.5,0.5)" font-size="40" xml:space="preserve" fill="#005f76" fill-rule="nonzero" stroke="none" stroke-width="1" stroke-linecap="butt" stroke-linejoin="miter" stroke-miterlimit="10" stroke-dasharray="" stroke-dashoffset="0" font-family="&quot;Segoe UI&quot;, Scratch" font-weight="normal" text-anchor="start" style="mix-blend-mode: normal"><tspan x="0" dy="0">Go</tspan></text><text transform="translate(306.64,185.76877) scale(0.5,0.5)" font-size="40" xml:space="preserve" fill="#008cb0" fill-rule="nonzero" stroke="none" stroke-width="1" stroke-linecap="butt" stroke-linejoin="miter" stroke-miterlimit="10" stroke-dasharray="" stroke-dashoffset="0" font-family="&quot;Segoe UI&quot;, Scratch" font-weight="normal" text-anchor="start" style="mix-blend-mode: normal"><tspan x="0" dy="0">Go</tspan></text><path d="M273.07282,199.04359c-1.49334,0 -2.70394,-1.06418 -2.70394,-2.37691v-30.30569c0,-1.31274 1.2106,-2.37691 2.70394,-2.37691h96.66574c1.49334,0 2.70394,1.06418 2.70394,2.37691v30.30569c0,1.31274 -1.2106,2.37691 -2.70394,2.37691z" fill="#222222" stroke="#222222" stroke-width="1.5"/><path d="M271.66713,197.90169c-1.49334,0 -2.70394,-1.06418 -2.70394,-2.37691v-30.30569c0,-1.31274 1.2106,-2.37691 2.70394,-2.37691h96.66574c1.49334,0 2.70394,1.06418 2.70394,2.37691v30.30569c0,1.31274 -1.2106,2.37691 -2.70394,2.37691z" fill="#3b3b3b" stroke="#383838" stroke-width="4"/><text transform="translate(282.70103,187.79378) scale(0.43252,0.43252)" font-size="40" xml:space="preserve" fill="#005f76" fill-rule="nonzero" stroke="none" stroke-width="1" stroke-linecap="butt" stroke-linejoin="miter" stroke-miterlimit="10" stroke-dasharray="" stroke-dashoffset="0" font-family="&quot;Segoe UI&quot;, Scratch" font-weight="normal" text-anchor="start" style="mix-blend-mode: normal"><tspan x="0" dy="0">Change ID</tspan></text><text transform="translate(281.58524,187.04992) scale(0.43252,0.43252)" font-size="40" xml:space="preserve" fill="#008cb0" fill-rule="nonzero" stroke="none" stroke-width="1" stroke-linecap="butt" stroke-linejoin="miter" stroke-miterlimit="10" stroke-dasharray="" stroke-dashoffset="0" font-family="&quot;Segoe UI&quot;, Scratch" font-weight="normal" text-anchor="start" style="mix-blend-mode: normal"><tspan x="0" dy="0">Change ID</tspan></text></g></g></svg>