<svg version="1.1" xmlns="http://www.w3.org/2000/svg" xmlns:xlink="http://www.w3.org/1999/xlink" width="298.2913" height="340" viewBox="0,0,298.2913,340"><g transform="translate(-173.35435,-12.33333)"><g data-paper-data="{&quot;isPaintingLayer&quot;:true}" fill-rule="nonzero" stroke-width="2" stroke-linecap="butt" stroke-linejoin="miter" stroke-miterlimit="10" stroke-dasharray="" stroke-dashoffset="0" style="mix-blend-mode: normal"><path d="M183.35437,351.33333c-2.20914,0 -4,-1.84917 -4,-4.13023v-325.07287c0,-2.28106 1.79086,-4.13023 4,-4.13023h283.29129c2.20914,0 4,1.84917 4,4.13023v325.07287c0,2.28106 -1.79086,4.13023 -4,4.13023z" fill="#171717" stroke="#232323"/><path d="M178.35436,346.66667c-2.20914,0 -4,-1.84917 -4,-4.13023v-325.07287c0,-2.28106 1.79086,-4.13023 4,-4.13023h283.29129c2.20914,0 4,1.84917 4,4.13023v325.07287c0,2.28106 -1.79086,4.13023 -4,4.13023z" fill="#333333" stroke="#000000"/></g></g></svg>