<svg version="1.1" xmlns="http://www.w3.org/2000/svg" xmlns:xlink="http://www.w3.org/1999/xlink" width="119.75" height="42.5298" viewBox="0,0,119.75,42.5298"><g transform="translate(-263.25,-161.9851)"><g data-paper-data="{&quot;isPaintingLayer&quot;:true}" fill-rule="nonzero" stroke-linecap="butt" stroke-linejoin="miter" stroke-miterlimit="10" stroke-dasharray="" stroke-dashoffset="0" style="mix-blend-mode: normal"><path d="M267.37583,203.7649c-1.72634,0 -3.12583,-1.23022 -3.12583,-2.74778v-35.03424c0,-1.51756 1.39949,-2.74778 3.12583,-2.74778h111.74834c1.72634,0 3.12583,1.23022 3.12583,2.74778v35.03424c0,1.51756 -1.39949,2.74778 -3.12583,2.74778z" fill="#222222" stroke="#222222" stroke-width="1.5"/><path d="M267.12583,203.2649c-1.72635,0 -3.12583,-1.23022 -3.12583,-2.74778v-35.03424c0,-1.51756 1.39948,-2.74778 3.12583,-2.74778h111.74834c1.72635,0 3.12583,1.23022 3.12583,2.74778v35.03424c0,1.51756 -1.39948,2.74778 -3.12583,2.74778z" fill="#3b3b3b" stroke="#293237" stroke-width="1.5"/><text transform="translate(310.39,189.51875) scale(0.5,0.5)" font-size="40" xml:space="preserve" fill="#005f76" fill-rule="nonzero" stroke="none" stroke-width="1" stroke-linecap="butt" stroke-linejoin="miter" stroke-miterlimit="10" stroke-dasharray="" stroke-dashoffset="0" font-family="&quot;Segoe UI&quot;, Scratch" font-weight="normal" text-anchor="start" style="mix-blend-mode: normal"><tspan x="0" dy="0">Go</tspan></text><text transform="translate(309.64,188.76875) scale(0.5,0.5)" font-size="40" xml:space="preserve" fill="#008cb0" fill-rule="nonzero" stroke="none" stroke-width="1" stroke-linecap="butt" stroke-linejoin="miter" stroke-miterlimit="10" stroke-dasharray="" stroke-dashoffset="0" font-family="&quot;Segoe UI&quot;, Scratch" font-weight="normal" text-anchor="start" style="mix-blend-mode: normal"><tspan x="0" dy="0">Go</tspan></text></g></g></svg>