<svg version="1.1" xmlns="http://www.w3.org/2000/svg" xmlns:xlink="http://www.w3.org/1999/xlink" width="107.63497" height="40.83712" viewBox="0,0,107.63497,40.83712"><g transform="translate(-265.55752,-158.95645)"><g data-paper-data="{&quot;isPaintingLayer&quot;:true}" fill-rule="nonzero" stroke-linecap="butt" stroke-linejoin="miter" stroke-miterlimit="10" stroke-dasharray="" stroke-dashoffset="0" style="mix-blend-mode: normal"><text transform="translate(307.39,187.01876) scale(0.5,0.5)" font-size="40" xml:space="preserve" fill="#005f76" fill-rule="nonzero" stroke="none" stroke-width="1" stroke-linecap="butt" stroke-linejoin="miter" stroke-miterlimit="10" stroke-dasharray="" stroke-dashoffset="0" font-family="&quot;Segoe UI&quot;, Scratch" font-weight="normal" text-anchor="start" style="mix-blend-mode: normal"><tspan x="0" dy="0">Go</tspan></text><text transform="translate(306.64,185.76876) scale(0.5,0.5)" font-size="40" xml:space="preserve" fill="#008cb0" fill-rule="nonzero" stroke="none" stroke-width="1" stroke-linecap="butt" stroke-linejoin="miter" stroke-miterlimit="10" stroke-dasharray="" stroke-dashoffset="0" font-family="&quot;Segoe UI&quot;, Scratch" font-weight="normal" text-anchor="start" style="mix-blend-mode: normal"><tspan x="0" dy="0">Go</tspan></text><path d="M273.07281,199.04358c-1.49334,0 -2.70394,-1.06418 -2.70394,-2.37691v-30.30569c0,-1.31274 1.2106,-2.37691 2.70394,-2.37691h96.66574c1.49334,0 2.70394,1.06418 2.70394,2.37691v30.30569c0,1.31274 -1.2106,2.37691 -2.70394,2.37691z" fill="#222222" stroke="#222222" stroke-width="1.5"/><path d="M270.26146,196.01597c-1.49334,0 -2.70394,-1.06418 -2.70394,-2.37691v-30.30569c0,-1.31274 1.2106,-2.37691 2.70394,-2.37691h96.66574c1.49334,0 2.70394,1.06418 2.70394,2.37691v30.30569c0,1.31274 -1.2106,2.37691 -2.70394,2.37691z" fill="#3b3b3b" stroke="#383838" stroke-width="4"/><text transform="translate(281.21329,185.93411) scale(0.43252,0.43252)" font-size="40" xml:space="preserve" fill="#494d4d" fill-rule="nonzero" stroke="none" stroke-width="1" stroke-linecap="butt" stroke-linejoin="miter" stroke-miterlimit="10" stroke-dasharray="" stroke-dashoffset="0" font-family="&quot;Segoe UI&quot;, Scratch" font-weight="normal" text-anchor="start" style="mix-blend-mode: normal"><tspan x="0" dy="0">Change ID</tspan></text><text transform="translate(280.09749,185.19025) scale(0.43252,0.43252)" font-size="40" xml:space="preserve" fill="#616668" fill-rule="nonzero" stroke="none" stroke-width="1" stroke-linecap="butt" stroke-linejoin="miter" stroke-miterlimit="10" stroke-dasharray="" stroke-dashoffset="0" font-family="&quot;Segoe UI&quot;, Scratch" font-weight="normal" text-anchor="start" style="mix-blend-mode: normal"><tspan x="0" dy="0">Change ID</tspan></text></g></g></svg>